<svg xmlns="http://www.w3.org/2000/svg" width="42.725" height="17.207" viewBox="0 0 42.725 17.207">
  <path id="Path_1" data-name="Path 1" d="M38.745,17.207a6.1,6.1,0,0,1-2.529-.508,5.218,5.218,0,0,1-1.836-1.338l-.215-.254L36.118,13.7l.264.263a3.6,3.6,0,0,0,1.006.694,3.134,3.134,0,0,0,1.357.283,3.373,3.373,0,0,0,1.016-.152,2.492,2.492,0,0,0,.84-.449,2.161,2.161,0,0,0,.571-.733,2.285,2.285,0,0,0,.21-1v-.586a4.375,4.375,0,0,1-1.246.586,4.887,4.887,0,0,1-1.313.176,5.368,5.368,0,0,1-1.895-.328,4.366,4.366,0,0,1-1.5-.932,4.3,4.3,0,0,1-.986-1.47,5.092,5.092,0,0,1-.356-1.948V4h2.471V8.027a2.691,2.691,0,0,0,.185,1.016,2.221,2.221,0,0,0,.527.786,2.465,2.465,0,0,0,.82.513,2.92,2.92,0,0,0,1.055.185,3.557,3.557,0,0,0,1.109-.191,3.213,3.213,0,0,0,1.128-.679V4h2.48V12.46a4.834,4.834,0,0,1-.391,1.973A4.371,4.371,0,0,1,42.4,15.927a4.787,4.787,0,0,1-1.621.948A6.066,6.066,0,0,1,38.745,17.207Zm-23.223-3.2h-2.48V8.389a4.5,4.5,0,0,1,.362-1.8,4.6,4.6,0,0,1,4.257-2.778,4.466,4.466,0,0,1,1.749.351,4.572,4.572,0,0,1,2.446,2.422,4.5,4.5,0,0,1,.366,1.807V14h-2.48V8.321a2.209,2.209,0,0,0-.161-.835,2.247,2.247,0,0,0-.44-.693,2.109,2.109,0,0,0-.659-.474,1.946,1.946,0,0,0-.821-.175,2.1,2.1,0,0,0-.85.171,2.133,2.133,0,0,0-.679.469,2.175,2.175,0,0,0-.449.693,2.235,2.235,0,0,0-.161.845V14Zm14.161,0h-3L23,4h2.9l2.335,7.08L30.561,4h2.8L29.683,14Zm-17.92,0H1.138L4,11.5h7.764V14ZM4,5.742H8.735v2.5H4ZM1.138,0H11.381V2.5H4Z" transform="translate(-1.138)" fill="#fff"/>
</svg>
